<svg width="402" height="402" viewBox="0 0 402 402" fill="none" xmlns="http://www.w3.org/2000/svg">
<path d="M379.387 241.032L201 370.677L22.6125 241.032C20.221 239.274 18.4471 236.804 17.5445 233.976C16.6419 231.148 16.657 228.106 17.5875 225.287L38.0225 161.972L78.8925 36.18C79.2889 35.155 79.9199 34.2371 80.735 33.5C82.0622 32.2876 83.7949 31.6154 85.5925 31.6154C87.3901 31.6154 89.1227 32.2876 90.45 33.5C91.3106 34.3319 91.9448 35.3696 92.2925 36.515L133.162 161.972H268.837L309.707 36.18C310.104 35.155 310.735 34.2371 311.55 33.5C312.877 32.2876 314.61 31.6154 316.407 31.6154C318.205 31.6154 319.938 32.2876 321.265 33.5C322.126 34.3319 322.76 35.3696 323.108 36.515L363.977 162.307L385.25 225.287C386.096 228.193 385.983 231.295 384.927 234.131C383.871 236.967 381.928 239.388 379.387 241.032Z" stroke="#F7E2BA" stroke-width="24" stroke-linecap="round" stroke-linejoin="round"/>
</svg>
