<svg width="49" height="49" viewBox="0 0 49 49" fill="none" xmlns="http://www.w3.org/2000/svg">
<path d="M42.5483 9.41209C41.5055 8.3688 40.2674 7.5412 38.9047 6.97655C37.542 6.4119 36.0813 6.12128 34.6063 6.12128C33.1312 6.12128 31.6705 6.4119 30.3078 6.97655C28.9451 7.5412 27.707 8.3688 26.6642 9.41209L24.5 11.5763L22.3358 9.41209C20.2295 7.30572 17.3726 6.12237 14.3938 6.12237C11.4149 6.12237 8.55804 7.30572 6.45167 9.41209C4.3453 11.5185 3.16195 14.3753 3.16195 17.3542C3.16195 20.333 4.3453 23.1899 6.45167 25.2963L8.61583 27.4604L24.5 43.3446L40.3842 27.4604L42.5483 25.2963C43.5916 24.2535 44.4192 23.0153 44.9839 21.6526C45.5485 20.2899 45.8391 18.8292 45.8391 17.3542C45.8391 15.8791 45.5485 14.4185 44.9839 13.0557C44.4192 11.693 43.5916 10.4549 42.5483 9.41209Z" stroke="#F7E2BA" stroke-width="4" stroke-linecap="round" stroke-linejoin="round"/>
</svg>
