<svg width="49" height="49" viewBox="0 0 49 49" fill="none" xmlns="http://www.w3.org/2000/svg">
<g id="instagram">
<path id="Vector" d="M34.7083 4.08334H14.2917C8.65376 4.08334 4.08334 8.65377 4.08334 14.2917V34.7083C4.08334 40.3462 8.65376 44.9167 14.2917 44.9167H34.7083C40.3462 44.9167 44.9167 40.3462 44.9167 34.7083V14.2917C44.9167 8.65377 40.3462 4.08334 34.7083 4.08334Z" stroke="#F7E2BA" stroke-width="4" stroke-linecap="round" stroke-linejoin="round"/>
<path id="Vector_2" d="M32.6667 23.2138C32.9186 24.9129 32.6284 26.6483 31.8373 28.173C31.0461 29.6977 29.7943 30.9341 28.26 31.7064C26.7256 32.4787 24.9868 32.7475 23.2909 32.4746C21.595 32.2017 20.0283 31.401 18.8136 30.1864C17.599 28.9717 16.7983 27.405 16.5254 25.7091C16.2525 24.0132 16.5213 22.2744 17.2936 20.74C18.0659 19.2057 19.3023 17.9539 20.827 17.1627C22.3517 16.3716 24.0871 16.0814 25.7863 16.3333C27.5195 16.5904 29.1241 17.398 30.363 18.637C31.602 19.8759 32.4097 21.4805 32.6667 23.2138Z" stroke="#F7E2BA" stroke-width="4" stroke-linecap="round" stroke-linejoin="round"/>
<path id="Vector_3" d="M35.7292 13.2708H35.7492" stroke="#F7E2BA" stroke-width="4" stroke-linecap="round" stroke-linejoin="round"/>
</g>
</svg>
