<svg width="44" height="47" viewBox="0 0 44 47" fill="none" xmlns="http://www.w3.org/2000/svg">
<path d="M16.359 38.5076C6.10256 41.5038 6.10256 33.514 2 32.5153M30.7179 44.5V36.7699C30.7949 35.8174 30.6627 34.8599 30.3303 33.961C29.9978 33.0621 29.4727 32.2425 28.7897 31.5565C35.2308 30.8574 42 28.4804 42 17.5744C41.9995 14.7856 40.8978 12.1037 38.9231 10.0839C39.8582 7.64404 39.792 4.94716 38.7385 2.55352C38.7385 2.55352 36.3179 1.85441 30.7179 5.50975C26.0164 4.26897 21.0605 4.26897 16.359 5.50975C10.759 1.85441 8.33846 2.55352 8.33846 2.55352C7.28487 4.94716 7.21876 7.64404 8.15385 10.0839C6.16436 12.1187 5.06158 14.8248 5.07692 17.6343C5.07692 28.4605 11.8462 30.8374 18.2872 31.6164C17.6123 32.2955 17.0918 33.1054 16.7596 33.9932C16.4274 34.8811 16.2909 35.8272 16.359 36.7699V44.5" stroke="#F7E2BA" stroke-width="4" stroke-linecap="round" stroke-linejoin="round"/>
</svg>
